<svg id="Layer_1" data-name="Layer 1" xmlns="http://www.w3.org/2000/svg" viewBox="0 0 1000 420"><defs><style>.cls-1{fill:#fff;}.cls-2{fill:#b0d3f0;}.cls-11,.cls-3{fill:#894b9d;}.cls-4{fill:#3d324c;}.cls-5{fill:#90bae1;}.cls-6{fill:#f9eab0;}.cls-7{fill:#f3d55b;}.cls-8{fill:#ff5364;}.cls-9{fill:#464f5d;}.cls-10{fill:#e4c05c;}.cls-11{font-size:79.41px;font-family:SFProDisplay-Semibold, SF Pro Display;font-weight:600;}.cls-12{letter-spacing:-0.03em;}.cls-13{letter-spacing:0em;}.cls-14{letter-spacing:-0.01em;}.cls-15{letter-spacing:0em;}.cls-16{letter-spacing:0em;}.cls-17{letter-spacing:-0.01em;}</style></defs><title>banner 2</title><rect class="cls-1" width="1000" height="420"/><path class="cls-2" d="M79.29,209h-.75c-10.45.93-20.48,2.29-30,4.06a63.17,63.17,0,1,1,124.64,0A321.46,321.46,0,0,0,140,208.72Z"/><path class="cls-3" d="M151.38,251.18a23.12,23.12,0,0,0,13.75,7,4.88,4.88,0,0,1,4.06,4.79V275.6a4.88,4.88,0,0,1-4.86,4.86H57.43a4.87,4.87,0,0,1-4.86-4.86V263a4.87,4.87,0,0,1,4-4.79,23.15,23.15,0,0,0,13.76-7Z"/><path class="cls-4" d="M81.72,268.31a2.43,2.43,0,0,1-2.43,2.43H52.57v-4.86H79.29A2.44,2.44,0,0,1,81.72,268.31Z"/><path class="cls-4" d="M169.19,265.88v4.86H142.46a2.43,2.43,0,1,1,0-4.86Z"/><path class="cls-5" d="M140,208.72A321.46,321.46,0,0,1,173.2,213a63.17,63.17,0,0,1-124.64,0c9.5-1.77,19.53-3.13,30-4.06h.75Z"/><path class="cls-6" d="M140,180.85V244a2.44,2.44,0,0,1-2.43,2.43H93.87A2.44,2.44,0,0,1,91.44,244V168.7a2.43,2.43,0,0,1,2.43-2.43h31.59Z"/><path class="cls-1" d="M96.3,153.7a2.43,2.43,0,0,1-.66-4.76,56.11,56.11,0,0,1,15.24-2.11,2.43,2.43,0,1,1,0,4.86A51.16,51.16,0,0,0,97,153.61,2.44,2.44,0,0,1,96.3,153.7Z"/><path class="cls-1" d="M71.78,168.7A2.43,2.43,0,0,1,70,164.61a56.36,56.36,0,0,1,12.69-10.16,2.43,2.43,0,0,1,2.45,4.2,51.08,51.08,0,0,0-11.58,9.28A2.45,2.45,0,0,1,71.78,168.7Z"/><path class="cls-3" d="M166.76,154.12A2.43,2.43,0,0,1,165,150l4.86-4.86a2.43,2.43,0,1,1,3.44,3.44l-4.86,4.86A2.43,2.43,0,0,1,166.76,154.12Z"/><path class="cls-3" d="M159.47,149.26a2.43,2.43,0,0,1-2.43-2.43V144.4a2.43,2.43,0,0,1,4.86,0v2.43A2.43,2.43,0,0,1,159.47,149.26Z"/><path class="cls-3" d="M174.05,161.41h-2.43a2.43,2.43,0,1,1,0-4.86h2.43a2.43,2.43,0,1,1,0,4.86Z"/><path class="cls-3" d="M55,154.12a2.4,2.4,0,0,1-1.72-.71l-4.86-4.86a2.43,2.43,0,0,1,3.44-3.44L56.71,150A2.43,2.43,0,0,1,55,154.12Z"/><path class="cls-3" d="M62.29,149.26a2.43,2.43,0,0,1-2.43-2.43V144.4a2.43,2.43,0,0,1,4.86,0v2.43A2.43,2.43,0,0,1,62.29,149.26Z"/><path class="cls-3" d="M50.14,161.41H47.71a2.43,2.43,0,1,1,0-4.86h2.43a2.43,2.43,0,1,1,0,4.86Z"/><path class="cls-7" d="M125.46,178.42a2.42,2.42,0,0,0,2.42,2.43H140l-14.57-14.58Z"/><path class="cls-8" d="M101.16,210A2.42,2.42,0,0,1,99,208.62a2.45,2.45,0,0,1,.29-2.57L109,193.91a2.42,2.42,0,0,1,2.67-.79l6.08,2,8.7-6.53a2.43,2.43,0,1,1,2.91,3.89l-9.72,7.29a2.42,2.42,0,0,1-2.22.36l-5.68-1.89-8.66,10.82A2.43,2.43,0,0,1,101.16,210Z"/><path class="cls-9" d="M130.31,219.72H101.16a2.43,2.43,0,0,1,0-4.86h29.15a2.43,2.43,0,1,1,0,4.86Z"/><path class="cls-9" d="M110.88,229.44h-9.72a2.43,2.43,0,1,1,0-4.86h9.72a2.43,2.43,0,1,1,0,4.86Z"/><path class="cls-9" d="M120.6,239.16H101.16a2.43,2.43,0,0,1,0-4.86H120.6a2.43,2.43,0,1,1,0,4.86Z"/><path class="cls-9" d="M115.74,180.85H101.16a2.43,2.43,0,0,1,0-4.86h14.58a2.43,2.43,0,1,1,0,4.86Z"/><path class="cls-10" d="M91.44,176v63.17H81.72a2.45,2.45,0,0,1-2.43-2.43V178.42A2.44,2.44,0,0,1,81.72,176Z"/><path class="cls-9" d="M130.31,210H101.16a2.43,2.43,0,0,1-2.43-2.43V188.14a2.43,2.43,0,0,1,4.86,0v17h26.72a2.43,2.43,0,0,1,0,4.86Z"/><text class="cls-11" transform="translate(213.83 225.03)">An<tspan class="cls-12" x="97.4" y="0">k</tspan><tspan x="136.52" y="0">-Bh</tspan><tspan class="cls-13" x="266.09" y="0">a</tspan><tspan x="308.12" y="0">vis</tspan><tspan class="cls-13" x="406.18" y="0">h</tspan><tspan class="cls-14" x="451.15" y="0">y</tspan><tspan class="cls-15" x="491.71" y="0">a</tspan><tspan class="cls-14" x="533.74" y="0">v</tspan><tspan class="cls-16" x="573.44" y="0">ak</tspan><tspan class="cls-17" x="656.76" y="0">t</tspan><tspan x="682.85" y="0">a </tspan></text></svg>